<?xml version="1.0" encoding="utf-8"?><svg viewBox="0 0 66 66" xmlns="http://www.w3.org/2000/svg" xmlns:xlink="http://www.w3.org/1999/xlink"><style>:root>svg{display:none}:root>svg:target{display:block}</style><svg fill="none" viewBox="0 0 10 18" id="arrow-down" xmlns="http://www.w3.org/2000/svg"><path d="M5.833 15.207l2.744-2.695a.844.844 0 011.179 0 .808.808 0 010 1.157L5.589 17.76a.844.844 0 01-1.178 0L.244 13.67a.808.808 0 010-1.158.844.844 0 011.179 0l2.744 2.695V.818C4.167.366 4.54 0 5 0c.46 0 .833.366.833.818v14.389z" fill="#0C5E84"/></svg><svg viewBox="0 0 16 16" id="arrow-left" xmlns="http://www.w3.org/2000/svg"><path d="M14.293.293a1 1 0 111.414 1.414L9.414 8l6.293 6.293a1 1 0 01-1.414 1.414l-7-7a1 1 0 010-1.414l7-7z"/><path d="M7.293.293a1 1 0 011.414 1.414L2.414 8l6.293 6.293a1 1 0 11-1.414 1.414l-7-7a1 1 0 010-1.414l7-7z"/></svg><svg viewBox="0 0 16 16" id="arrow-right" xmlns="http://www.w3.org/2000/svg"><path d="M1.707.293A1 1 0 00.293 1.707L6.586 8 .293 14.293a1 1 0 101.414 1.414l7-7a1 1 0 000-1.414l-7-7z"/><path d="M8.707.293a1 1 0 00-1.414 1.414L13.586 8l-6.293 6.293a1 1 0 101.414 1.414l7-7a1 1 0 000-1.414l-7-7z"/></svg><svg fill="none" viewBox="0 0 66 66" id="ic-1" xmlns="http://www.w3.org/2000/svg"><circle cx="33" cy="33" r="33" fill="#DD3824"/><path d="M40.759 29.509a1.25 1.25 0 00-1.768-1.768L30.5 36.232l-4.116-4.116a1.25 1.25 0 10-1.768 1.768l5 5a1.25 1.25 0 001.768 0l9.375-9.375z" fill="#fff"/><path fill-rule="evenodd" clip-rule="evenodd" d="M48 33c0 8.284-6.716 15-15 15-8.284 0-15-6.716-15-15 0-8.284 6.716-15 15-15 8.284 0 15 6.716 15 15zm-2.5 0c0 6.903-5.596 12.5-12.5 12.5S20.5 39.903 20.5 33c0-6.904 5.596-12.5 12.5-12.5S45.5 26.096 45.5 33z" fill="#fff"/></svg><svg fill="none" viewBox="0 0 66 66" id="ic-2" xmlns="http://www.w3.org/2000/svg"><circle cx="33" cy="33" r="33" fill="#0C5E84"/><path d="M27.436 23.8V42h-3.38V26.634h-3.848V23.8h7.228zm17.338 0v2.262L37.702 42h-3.614l6.838-15.34h-7.15v3.094H30.63V23.8h14.144z" fill="#fff"/></svg><svg fill="none" viewBox="0 0 66 66" id="ic-3" xmlns="http://www.w3.org/2000/svg"><circle cx="33" cy="33" r="33" fill="#0C5E84"/><path d="M40.84 29.81a1.374 1.374 0 00-1.942-1.942l-7.27 7.27-3.15-3.149a1.374 1.374 0 00-1.942 1.943l4.12 4.12a1.373 1.373 0 001.943 0l8.241-8.241z" fill="#fff"/><path fill-rule="evenodd" clip-rule="evenodd" d="M34.304 18.212a4.12 4.12 0 00-2.606 0l-9.615 3.204a4.12 4.12 0 00-2.817 3.91v10.382c0 4.257 2.788 7.162 5.586 9 2.815 1.848 5.92 2.815 7.2 3.164.625.17 1.273.17 1.898 0 1.28-.35 4.386-1.316 7.2-3.164 2.799-1.838 5.587-4.743 5.587-9V25.326a4.12 4.12 0 00-2.818-3.91l-9.615-3.204zm-1.737 2.606c.282-.094.587-.094.869 0l9.615 3.205c.56.187.939.712.939 1.303v10.382c0 2.898-1.872 5.078-4.347 6.703-2.46 1.615-5.242 2.49-6.416 2.81a.837.837 0 01-.451 0c-1.175-.32-3.957-1.195-6.416-2.81-2.476-1.625-4.347-3.805-4.347-6.703V25.326c0-.591.378-1.116.939-1.303l9.615-3.205z" fill="#fff"/></svg><svg fill="none" viewBox="0 0 66 66" id="ic-4" xmlns="http://www.w3.org/2000/svg"><circle cx="33" cy="33" r="33" fill="#DD3824"/><path d="M34.666 36.275l-10.7 10.7a3.492 3.492 0 01-4.942 0v0a3.492 3.492 0 010-4.941l10.7-10.7h-.058L28 24.667 34.666 18l6.667 1.667-6.666 6.666 5 5 6.666-6.666L48 31.334 41.333 38l-6.666-1.666v-.059z" stroke="#fff" stroke-width="2.5" stroke-linecap="round" stroke-linejoin="round"/></svg><svg fill="none" viewBox="0 0 16 18" id="mark" xmlns="http://www.w3.org/2000/svg"><path d="M14.222 7.569C14.222 11.2 8 17 8 17s-6.222-5.778-6.222-9.431C1.778 3.916 4.564 1 8 1c3.436 0 6.222 2.942 6.222 6.569z" stroke="#fff" stroke-width="2" stroke-linecap="round" stroke-linejoin="round"/><path d="M8 9.889a2.667 2.667 0 100-5.333 2.667 2.667 0 000 5.333z" stroke="#fff" stroke-width="2" stroke-linecap="round" stroke-linejoin="round"/></svg><svg fill="none" viewBox="0 0 30 30" id="route" xmlns="http://www.w3.org/2000/svg"><circle cx="15" cy="15" r="15" fill="#fff"/><path d="M9.75 22a1.75 1.75 0 100-3.5 1.75 1.75 0 000 3.5zM22 11.5L18.5 8M18.5 11.5L22 8M9.75 15v-4.375a2.625 2.625 0 115.25 0v8.75a2.625 2.625 0 105.25 0v-5.25" stroke="#DD3824" stroke-width="2" stroke-linecap="round" stroke-linejoin="round"/></svg><svg fill="none" viewBox="0 0 28 28" id="tel" xmlns="http://www.w3.org/2000/svg"><path fill-rule="evenodd" clip-rule="evenodd" d="M3.83 3.481c1.318-1.851 3.967-2.017 5.445-.213l.375.459c1.098 1.341 2.196 2.682 2.617 3.106.409.41.487 1.045.19 1.542l-2.311 3.866c.148.243.349.534.605.865a21.1 21.1 0 001.696 1.9c1.098 1.103 2.328 2.145 3.387 2.848l3.791-2.283a1.254 1.254 0 011.46.119l3.659 3.107c1.703 1.447 1.593 4.115-.222 5.417-2.799 2.007-6.561 2.484-9.644.596-2.124-1.302-4.728-3.14-7.058-5.478a31.646 31.646 0 01-4.75-6.146c-1.877-3.158-1.222-6.918.76-9.705zm3.501 1.39c-.388-.474-1.062-.471-1.453.078-1.555 2.186-1.89 4.853-.648 6.943a29.123 29.123 0 004.37 5.654c2.143 2.152 4.57 3.872 6.589 5.108 2.08 1.275 4.749 1.027 6.871-.495a.911.911 0 00.059-1.434L20.148 18.2l-3.675 2.214c-.39.234-.874.24-1.269.015-1.444-.823-3.133-2.229-4.536-3.638a23.59 23.59 0 01-1.902-2.135c-.52-.671-.98-1.372-1.228-2.009a1.267 1.267 0 01.093-1.108L9.82 7.878a145.289 145.289 0 01-2.088-2.517l-.4-.49z" fill="#101010"/></svg></svg>